<svg xmlns="http://www.w3.org/2000/svg" viewBox="0 0 1280 720" width="1280" height="720" preserveAspectRatio="xMidYMid slice"><defs><radialGradient id="base" cx="50%" cy="46%" r="75%"><stop offset="0%" stop-color="#0a1f16"/><stop offset="100%" stop-color="#06140e"/></radialGradient><filter id="soft" x="-40%" y="-40%" width="180%" height="180%"><feGaussianBlur stdDeviation="9"/></filter><filter id="soft2" x="-60%" y="-60%" width="220%" height="220%"><feGaussianBlur stdDeviation="22"/></filter><linearGradient id="scrim" x1="0" y1="0" x2="0" y2="1"><stop offset="0%" stop-color="#06140e" stop-opacity="0.52"/><stop offset="55%" stop-color="#06140e" stop-opacity="0.60"/><stop offset="100%" stop-color="#06140e" stop-opacity="0.72"/></linearGradient><radialGradient id="vig" cx="50%" cy="50%" r="72%"><stop offset="60%" stop-color="#000" stop-opacity="0"/><stop offset="100%" stop-color="#000" stop-opacity="0.45"/></radialGradient></defs><rect width="1280" height="720" fill="url(#base)"/><rect x="6" y="8" width="152.86" height="114" rx="8" fill="none" opacity="0.3" stroke="#7bed9f" stroke-width="1.6"/><rect x="194.06" y="10" width="152.86" height="114" rx="8" fill="none" opacity="0.13" stroke="#7bed9f" stroke-width="1.6"/><rect x="382.11" y="12" width="152.86" height="114" rx="8" fill="none" opacity="0.05" stroke="#7bed9f" stroke-width="1.6"/><rect x="570.17" y="14" width="152.86" height="114" rx="8" fill="none" opacity="0.3" stroke="#7bed9f" stroke-width="1.6"/><rect x="742.23" y="16" width="152.86" height="114" rx="8" fill="none" opacity="0.13" stroke="#7bed9f" stroke-width="1.6"/><rect x="930.29" y="18" width="152.86" height="114" rx="8" fill="none" opacity="0.05" stroke="#7bed9f" stroke-width="1.6"/><rect x="1118.34" y="8" width="152.86" height="114" rx="8" fill="none" opacity="0.3" stroke="#7bed9f" stroke-width="1.6"/><rect x="8.8" y="156.4" width="152.86" height="114" rx="8" fill="none" opacity="0.13" stroke="#7bed9f" stroke-width="1.6"/><rect x="196.86" y="158.4" width="152.86" height="114" rx="8" fill="none" opacity="0.05" stroke="#7bed9f" stroke-width="1.6"/><rect x="384.91" y="160.4" width="152.86" height="114" rx="8" fill="none" opacity="0.3" stroke="#7bed9f" stroke-width="1.6"/><rect x="556.97" y="162.4" width="152.86" height="114" rx="8" fill="none" opacity="0.13" stroke="#7bed9f" stroke-width="1.6"/><rect x="745.03" y="152.4" width="152.86" height="114" rx="8" fill="none" opacity="0.05" stroke="#7bed9f" stroke-width="1.6"/><rect x="933.09" y="154.4" width="152.86" height="114" rx="8" fill="none" opacity="0.3" stroke="#7bed9f" stroke-width="1.6"/><rect x="1105.14" y="156.4" width="152.86" height="114" rx="8" fill="none" opacity="0.13" stroke="#7bed9f" stroke-width="1.6"/><rect x="11.6" y="304.8" width="152.86" height="114" rx="8" fill="none" opacity="0.05" stroke="#7bed9f" stroke-width="1.6"/><rect x="199.66" y="306.8" width="152.86" height="114" rx="8" fill="none" opacity="0.3" stroke="#7bed9f" stroke-width="1.6"/><rect x="371.71" y="296.8" width="152.86" height="114" rx="8" fill="none" opacity="0.13" stroke="#7bed9f" stroke-width="1.6"/><rect x="559.77" y="298.8" width="152.86" height="114" rx="8" fill="none" opacity="0.05" stroke="#7bed9f" stroke-width="1.6"/><rect x="747.83" y="300.8" width="152.86" height="114" rx="8" fill="none" opacity="0.3" stroke="#7bed9f" stroke-width="1.6"/><rect x="935.89" y="302.8" width="152.86" height="114" rx="8" fill="none" opacity="0.13" stroke="#7bed9f" stroke-width="1.6"/><rect x="1107.94" y="304.8" width="152.86" height="114" rx="8" fill="none" opacity="0.05" stroke="#7bed9f" stroke-width="1.6"/><rect x="14.4" y="441.2" width="152.86" height="114" rx="8" fill="none" opacity="0.3" stroke="#7bed9f" stroke-width="1.6"/><rect x="202.46" y="443.2" width="152.86" height="114" rx="8" fill="none" opacity="0.13" stroke="#7bed9f" stroke-width="1.6"/><rect x="374.51" y="445.2" width="152.86" height="114" rx="8" fill="none" opacity="0.05" stroke="#7bed9f" stroke-width="1.6"/><rect x="562.57" y="447.2" width="152.86" height="114" rx="8" fill="none" opacity="0.3" stroke="#7bed9f" stroke-width="1.6"/><rect x="750.63" y="449.2" width="152.86" height="114" rx="8" fill="none" opacity="0.13" stroke="#7bed9f" stroke-width="1.6"/><rect x="922.69" y="451.2" width="152.86" height="114" rx="8" fill="none" opacity="0.05" stroke="#7bed9f" stroke-width="1.6"/><rect x="1110.74" y="441.2" width="152.86" height="114" rx="8" fill="none" opacity="0.3" stroke="#7bed9f" stroke-width="1.6"/><rect x="17.2" y="589.6" width="152.86" height="114" rx="8" fill="none" opacity="0.13" stroke="#7bed9f" stroke-width="1.6"/><rect x="189.26" y="591.6" width="152.86" height="114" rx="8" fill="none" opacity="0.05" stroke="#7bed9f" stroke-width="1.6"/><rect x="377.31" y="593.6" width="152.86" height="114" rx="8" fill="none" opacity="0.3" stroke="#7bed9f" stroke-width="1.6"/><rect x="565.37" y="595.6" width="152.86" height="114" rx="8" fill="none" opacity="0.13" stroke="#7bed9f" stroke-width="1.6"/><rect x="737.43" y="585.6" width="152.86" height="114" rx="8" fill="none" opacity="0.05" stroke="#7bed9f" stroke-width="1.6"/><rect x="925.49" y="587.6" width="152.86" height="114" rx="8" fill="none" opacity="0.3" stroke="#7bed9f" stroke-width="1.6"/><rect x="1113.54" y="589.6" width="152.86" height="114" rx="8" fill="none" opacity="0.13" stroke="#7bed9f" stroke-width="1.6"/><g filter="url(#soft2)"><rect x="-40" y="432" width="1360" height="130" rx="0" fill="#0a1f16" opacity="0.5"/></g><rect width="1280" height="720" fill="url(#scrim)"/><rect width="1280" height="720" fill="url(#vig)"/></svg>